<svg width="300" height="47" viewBox="0 0 300 47" fill="none" xmlns="http://www.w3.org/2000/svg">
<path d="M88.1335 16.6676C88.0483 15.7301 87.669 15.0014 86.9957 14.4815C86.331 13.9531 85.3807 13.6889 84.1449 13.6889C83.3267 13.6889 82.6449 13.7955 82.0994 14.0085C81.554 14.2216 81.1449 14.5156 80.8722 14.8906C80.5994 15.2571 80.4588 15.679 80.4503 16.1562C80.4332 16.5483 80.5099 16.8935 80.6804 17.1918C80.8594 17.4901 81.1151 17.7543 81.4474 17.9844C81.7884 18.206 82.1974 18.402 82.6747 18.5724C83.152 18.7429 83.6889 18.892 84.2855 19.0199L86.5355 19.5312C87.831 19.8125 88.973 20.1875 89.9616 20.6562C90.9588 21.125 91.794 21.6832 92.4673 22.331C93.1491 22.9787 93.6648 23.7244 94.0142 24.5682C94.3636 25.4119 94.5426 26.358 94.5511 27.4062C94.5426 29.0597 94.125 30.4787 93.2983 31.6634C92.4716 32.848 91.2827 33.7557 89.7315 34.3864C88.1889 35.017 86.3267 35.3324 84.1449 35.3324C81.9545 35.3324 80.0455 35.0043 78.4176 34.348C76.7898 33.6918 75.5241 32.6946 74.6207 31.3565C73.7173 30.0185 73.2528 28.3267 73.2273 26.2812H79.2869C79.3381 27.125 79.5639 27.8281 79.9645 28.3906C80.3651 28.9531 80.9148 29.3793 81.6136 29.669C82.321 29.9588 83.1392 30.1037 84.0682 30.1037C84.9205 30.1037 85.6449 29.9886 86.2415 29.7585C86.8466 29.5284 87.3111 29.2088 87.6349 28.7997C87.9588 28.3906 88.125 27.9219 88.1335 27.3935C88.125 26.8991 87.9716 26.4773 87.6733 26.1278C87.375 25.7699 86.9148 25.4631 86.2926 25.2074C85.679 24.9432 84.8949 24.7003 83.9403 24.4787L81.2045 23.8395C78.9375 23.3196 77.152 22.4801 75.848 21.321C74.544 20.1534 73.8963 18.5767 73.9048 16.5909C73.8963 14.9716 74.331 13.5526 75.2088 12.3338C76.0866 11.1151 77.3011 10.1648 78.8523 9.48295C80.4034 8.80114 82.1719 8.46023 84.1577 8.46023C86.1861 8.46023 87.946 8.8054 89.4375 9.49574C90.9375 10.1776 92.1009 11.1364 92.9276 12.3722C93.7543 13.608 94.1761 15.0398 94.1932 16.6676H88.1335ZM103.385 29.848L103.411 22.3949H104.28L109.803 15.3636H116.885L108.678 25.4375H107.028L103.385 29.848ZM97.7472 35V8.81818H103.999V35H97.7472ZM109.943 35L104.804 26.8438L108.92 22.4077L117.166 35H109.943ZM119.122 35V15.3636H125.374V35H119.122ZM122.254 13.0753C121.376 13.0753 120.622 12.7855 119.991 12.206C119.361 11.6179 119.045 10.9105 119.045 10.0838C119.045 9.26562 119.361 8.56676 119.991 7.98722C120.622 7.39915 121.376 7.10511 122.254 7.10511C123.141 7.10511 123.895 7.39915 124.517 7.98722C125.148 8.56676 125.463 9.26562 125.463 10.0838C125.463 10.9105 125.148 11.6179 124.517 12.206C123.895 12.7855 123.141 13.0753 122.254 13.0753ZM135.604 8.81818V35H129.353V8.81818H135.604ZM145.835 8.81818V35H139.583V8.81818H145.835ZM157.548 35V8.81818H175.804V13.9574H163.876V19.3267H174.87V24.4787H163.876V29.8608H175.804V35H157.548ZM185.085 15.3636L188.319 21.8324L191.669 15.3636H197.971L192.487 25.1818L198.176 35H191.924L188.319 28.4801L184.804 35H178.463L184.164 25.1818L178.744 15.3636H185.085ZM200.825 42.3636V15.3636H207.013V18.7259H207.205C207.46 18.1293 207.822 17.554 208.291 17C208.768 16.446 209.374 15.9943 210.107 15.6449C210.848 15.2869 211.734 15.108 212.766 15.108C214.129 15.108 215.403 15.4659 216.588 16.1818C217.781 16.8977 218.744 18.0014 219.477 19.4929C220.21 20.9844 220.577 22.8849 220.577 25.1946C220.577 27.419 220.223 29.2812 219.516 30.7812C218.817 32.2812 217.871 33.4062 216.678 34.1562C215.493 34.9062 214.176 35.2812 212.727 35.2812C211.739 35.2812 210.882 35.1193 210.158 34.7955C209.433 34.4716 208.824 34.0455 208.33 33.517C207.844 32.9886 207.469 32.4219 207.205 31.8168H207.077V42.3636H200.825ZM206.949 25.1818C206.949 26.2386 207.089 27.1591 207.371 27.9432C207.661 28.7273 208.074 29.3366 208.611 29.7713C209.156 30.1974 209.808 30.4105 210.567 30.4105C211.334 30.4105 211.986 30.1974 212.523 29.7713C213.06 29.3366 213.464 28.7273 213.737 27.9432C214.018 27.1591 214.159 26.2386 214.159 25.1818C214.159 24.125 214.018 23.2088 213.737 22.4332C213.464 21.6577 213.06 21.0568 212.523 20.6307C211.994 20.2045 211.342 19.9915 210.567 19.9915C209.8 19.9915 209.148 20.2003 208.611 20.6179C208.074 21.0355 207.661 21.6321 207.371 22.4077C207.089 23.1832 206.949 24.108 206.949 25.1818ZM223.853 35V15.3636H229.925V18.9432H230.13C230.488 17.6477 231.071 16.6847 231.881 16.054C232.691 15.4148 233.632 15.0952 234.706 15.0952C234.996 15.0952 235.294 15.1165 235.601 15.1591C235.908 15.1932 236.194 15.2486 236.458 15.3253V20.7585C236.159 20.6562 235.767 20.5753 235.282 20.5156C234.804 20.456 234.378 20.4261 234.003 20.4261C233.262 20.4261 232.593 20.5923 231.996 20.9247C231.408 21.2486 230.944 21.7045 230.603 22.2926C230.27 22.8722 230.104 23.554 230.104 24.3381V35H223.853ZM247.164 35.3707C245.11 35.3707 243.338 34.9659 241.846 34.1562C240.363 33.3381 239.221 32.1747 238.42 30.6662C237.627 29.1491 237.231 27.3466 237.231 25.2585C237.231 23.2301 237.632 21.4574 238.433 19.9403C239.234 18.4148 240.363 17.2301 241.821 16.3864C243.278 15.5341 244.995 15.108 246.973 15.108C248.37 15.108 249.649 15.3253 250.808 15.7599C251.967 16.1946 252.968 16.8381 253.812 17.6903C254.656 18.5426 255.312 19.5952 255.781 20.848C256.25 22.0923 256.484 23.5199 256.484 25.1307V26.6903H239.417V23.0597H250.667C250.659 22.3949 250.501 21.8026 250.194 21.2827C249.887 20.7628 249.466 20.358 248.929 20.0682C248.4 19.7699 247.791 19.6207 247.1 19.6207C246.402 19.6207 245.775 19.7784 245.221 20.0938C244.667 20.4006 244.228 20.8224 243.904 21.3594C243.581 21.8878 243.41 22.4886 243.393 23.1619V26.8565C243.393 27.6577 243.551 28.3608 243.866 28.9659C244.181 29.5625 244.629 30.027 245.208 30.3594C245.788 30.6918 246.478 30.858 247.279 30.858C247.833 30.858 248.336 30.7812 248.788 30.6278C249.24 30.4744 249.627 30.2486 249.951 29.9503C250.275 29.652 250.518 29.2855 250.68 28.8509L256.42 29.017C256.181 30.304 255.657 31.4247 254.848 32.3793C254.047 33.3253 252.994 34.0625 251.69 34.5909C250.386 35.1108 248.877 35.3707 247.164 35.3707ZM276.82 21.3594L271.08 21.5128C271.021 21.1037 270.859 20.7415 270.594 20.4261C270.33 20.1023 269.985 19.8509 269.559 19.6719C269.141 19.4844 268.656 19.3906 268.102 19.3906C267.377 19.3906 266.759 19.5355 266.248 19.8253C265.745 20.1151 265.498 20.5071 265.506 21.0014C265.498 21.3849 265.651 21.7173 265.967 21.9986C266.29 22.2798 266.866 22.5057 267.692 22.6761L271.477 23.392C273.437 23.767 274.894 24.3892 275.849 25.2585C276.812 26.1278 277.298 27.2784 277.306 28.7102C277.298 30.0568 276.897 31.2287 276.104 32.2259C275.32 33.223 274.246 33.9986 272.883 34.5526C271.519 35.098 269.96 35.3707 268.204 35.3707C265.4 35.3707 263.188 34.7955 261.569 33.6449C259.958 32.4858 259.038 30.9347 258.808 28.9915L264.982 28.8381C265.119 29.554 265.472 30.0994 266.043 30.4744C266.614 30.8494 267.343 31.0369 268.229 31.0369C269.031 31.0369 269.683 30.8878 270.185 30.5895C270.688 30.2912 270.944 29.8949 270.952 29.4006C270.944 28.9574 270.748 28.6037 270.364 28.3395C269.981 28.0668 269.38 27.8537 268.562 27.7003L265.136 27.0483C263.167 26.6903 261.701 26.0298 260.738 25.0668C259.775 24.0952 259.298 22.8594 259.306 21.3594C259.298 20.0469 259.647 18.9261 260.354 17.9972C261.062 17.0597 262.067 16.3438 263.371 15.8494C264.675 15.3551 266.214 15.108 267.987 15.108C270.646 15.108 272.742 15.6662 274.276 16.7827C275.81 17.8906 276.658 19.4162 276.82 21.3594ZM297.527 21.3594L291.787 21.5128C291.728 21.1037 291.566 20.7415 291.301 20.4261C291.037 20.1023 290.692 19.8509 290.266 19.6719C289.848 19.4844 289.363 19.3906 288.809 19.3906C288.084 19.3906 287.466 19.5355 286.955 19.8253C286.452 20.1151 286.205 20.5071 286.213 21.0014C286.205 21.3849 286.358 21.7173 286.674 21.9986C286.998 22.2798 287.573 22.5057 288.4 22.6761L292.184 23.392C294.144 23.767 295.601 24.3892 296.556 25.2585C297.519 26.1278 298.005 27.2784 298.013 28.7102C298.005 30.0568 297.604 31.2287 296.811 32.2259C296.027 33.223 294.953 33.9986 293.59 34.5526C292.226 35.098 290.667 35.3707 288.911 35.3707C286.107 35.3707 283.895 34.7955 282.276 33.6449C280.665 32.4858 279.745 30.9347 279.515 28.9915L285.689 28.8381C285.826 29.554 286.179 30.0994 286.75 30.4744C287.321 30.8494 288.05 31.0369 288.936 31.0369C289.738 31.0369 290.39 30.8878 290.892 30.5895C291.395 30.2912 291.651 29.8949 291.659 29.4006C291.651 28.9574 291.455 28.6037 291.071 28.3395C290.688 28.0668 290.087 27.8537 289.269 27.7003L285.843 27.0483C283.874 26.6903 282.408 26.0298 281.445 25.0668C280.482 24.0952 280.005 22.8594 280.013 21.3594C280.005 20.0469 280.354 18.9261 281.061 17.9972C281.769 17.0597 282.775 16.3438 284.078 15.8494C285.382 15.3551 286.921 15.108 288.694 15.108C291.353 15.108 293.449 15.6662 294.983 16.7827C296.517 17.8906 297.365 19.4162 297.527 21.3594Z" fill="white"/>
<path d="M26 47L0.0192261 2L51.9807 2L26 47Z" fill="white"/>
</svg>
